<?xml version="1.0" encoding="UTF-8" standalone="no"?>
<!-- Generator: Adobe Illustrator 19.0.0, SVG Export Plug-In . SVG Version: 6.00 Build 0)  -->

<svg
   xmlns:dc="http://purl.org/dc/elements/1.1/"
   xmlns:cc="http://creativecommons.org/ns#"
   xmlns:rdf="http://www.w3.org/1999/02/22-rdf-syntax-ns#"
   xmlns:svg="http://www.w3.org/2000/svg"
   xmlns="http://www.w3.org/2000/svg"
   xmlns:sodipodi="http://sodipodi.sourceforge.net/DTD/sodipodi-0.dtd"
   xmlns:inkscape="http://www.inkscape.org/namespaces/inkscape"
   version="1.1"
   id="Layer_1"
   x="0px"
   y="0px"
   viewBox="0 0 512.001 512.001"
   style="enable-background:new 0 0 512.001 512.001;"
   xml:space="preserve"
   sodipodi:docname="atomic.svg"
   inkscape:version="0.92.1 r15371"><metadata
     id="metadata49"><rdf:RDF><cc:Work
         rdf:about=""><dc:format>image/svg+xml</dc:format><dc:type
           rdf:resource="http://purl.org/dc/dcmitype/StillImage" /></cc:Work></rdf:RDF></metadata><defs
     id="defs47" /><sodipodi:namedview
     pagecolor="#ffffff"
     bordercolor="#666666"
     borderopacity="1"
     objecttolerance="10"
     gridtolerance="10"
     guidetolerance="10"
     inkscape:pageopacity="0"
     inkscape:pageshadow="2"
     inkscape:window-width="821"
     inkscape:window-height="480"
     id="namedview45"
     showgrid="false"
     inkscape:zoom="0.46093662"
     inkscape:cx="256.00049"
     inkscape:cy="256.00049"
     inkscape:window-x="0"
     inkscape:window-y="0"
     inkscape:window-maximized="0"
     inkscape:current-layer="Layer_1" /><g
     id="g6"
     style="fill:#ffffff"><g
       id="g4"
       style="fill:#ffffff"><path
         d="m 269.402,201.258 c -36.341,0 -65.908,29.567 -65.908,65.908 0,36.343 29.567,65.909 65.908,65.909 36.344,0 65.911,-29.567 65.911,-65.909 -10e-4,-36.341 -29.567,-65.908 -65.911,-65.908 z m 0,106.878 c -22.591,0 -40.969,-18.379 -40.969,-40.97 0,-22.591 18.379,-40.969 40.969,-40.969 22.591,0 40.971,18.379 40.971,40.969 0,22.59 -18.379,40.97 -40.971,40.97 z"
         id="path2"
         inkscape:connector-curvature="0"
         style="fill:#ffffff" /></g></g><g
     id="g12"
     style="fill:#ffffff"><g
       id="g10"
       style="fill:#ffffff"><path
         d="m 510.298,153.212 c 4.854,-35.67 -0.718,-66.01 -16.116,-88.421 2.52,-5.563 3.935,-11.729 3.935,-18.223 0,-24.443 -19.885,-44.329 -44.329,-44.329 -16.518,0 -30.946,9.089 -38.571,22.521 C 373.456,22.673 322.325,38.018 269.4,68.593 179.038,16.37 97.225,10.097 54.785,52.552 36.34,70.997 26.787,97.389 26.831,129.274 11.065,136.075 0,151.765 0,169.996 c 0,24.443 19.886,44.329 44.329,44.329 0.257,0 0.51,-0.015 0.766,-0.02 6.818,17.34 15.442,35.057 25.73,52.862 -52.223,90.361 -58.495,172.174 -16.042,214.614 18.729,18.734 45.116,27.982 76.527,27.981 39.774,-10e-4 87.601,-14.843 138.089,-44.02 50.492,29.18 98.314,44.02 138.092,44.02 31.41,0 57.805,-9.247 76.536,-27.978 42.45,-42.451 36.167,-124.268 -16.07,-214.624 22.976,-39.774 37.591,-79.04 42.341,-113.948 z M 453.788,27.178 c 10.691,0 19.39,8.699 19.39,19.39 0,10.691 -8.699,19.39 -19.39,19.39 -10.691,0 -19.39,-8.699 -19.39,-19.39 0,-10.691 8.698,-19.39 19.39,-19.39 z m -44.221,22.333 c 1.521,23.075 20.767,41.387 44.221,41.387 8.491,0 16.429,-2.404 23.177,-6.56 9.231,16.76 12.215,39.108 8.622,65.513 -3.856,28.343 -15.083,60.193 -32.658,93.024 C 432.893,212.487 408.814,183.151 381.117,155.452 353.421,127.756 324.076,103.671 293.672,83.618 336.244,60.79 376.448,48.95 409.567,49.511 Z M 44.329,189.386 c -10.691,0 -19.39,-8.698 -19.39,-19.39 0,-10.691 8.699,-19.39 19.39,-19.39 10.691,0 19.39,8.699 19.39,19.39 10e-4,10.691 -8.698,19.39 -19.39,19.39 z m 24.647,17.436 c 11.861,-7.964 19.683,-21.498 19.683,-36.826 0,-21.903 -15.974,-40.137 -36.881,-43.691 0.505,-23.761 7.542,-43.018 20.642,-56.119 31.886,-31.895 98.414,-26.287 172.688,13.445 -30.398,20.05 -59.734,44.131 -87.424,71.821 -27.694,27.694 -51.776,57.033 -71.826,87.432 -6.513,-12.166 -12.15,-24.22 -16.882,-36.062 z m 3.441,257.325 C 40.522,432.262 46.13,365.733 85.862,291.461 c 20.049,30.397 44.13,59.733 71.821,87.424 27.691,27.69 57.027,51.771 87.424,71.821 -74.274,39.729 -140.801,45.337 -172.69,13.441 z M 175.319,361.249 c -29.709,-29.708 -55.052,-61.328 -75.421,-94.082 20.367,-32.753 45.711,-64.372 75.421,-94.082 29.709,-29.709 61.328,-55.053 94.082,-75.421 32.753,20.369 64.373,45.712 94.082,75.421 29.718,29.719 55.058,61.337 75.409,94.082 -20.35,32.743 -45.69,64.363 -75.409,94.082 -29.709,29.709 -61.329,55.053 -94.082,75.421 -32.753,-20.368 -64.374,-45.712 -94.082,-75.421 z m 291.073,102.899 c -31.896,31.893 -98.427,26.287 -172.7,-13.443 30.397,-20.049 59.733,-44.13 87.424,-71.821 27.699,-27.699 51.776,-57.035 71.811,-87.421 39.741,74.268 45.356,140.796 13.465,172.685 z"
         id="path8"
         inkscape:connector-curvature="0"
         style="fill:#ffffff" /></g></g><g
     id="g14"
     style="fill:#ffffff" /><g
     id="g16"
     style="fill:#ffffff" /><g
     id="g18"
     style="fill:#ffffff" /><g
     id="g20"
     style="fill:#ffffff" /><g
     id="g22"
     style="fill:#ffffff" /><g
     id="g24"
     style="fill:#ffffff" /><g
     id="g26"
     style="fill:#ffffff" /><g
     id="g28"
     style="fill:#ffffff" /><g
     id="g30"
     style="fill:#ffffff" /><g
     id="g32"
     style="fill:#ffffff" /><g
     id="g34"
     style="fill:#ffffff" /><g
     id="g36"
     style="fill:#ffffff" /><g
     id="g38"
     style="fill:#ffffff" /><g
     id="g40"
     style="fill:#ffffff" /><g
     id="g42"
     style="fill:#ffffff" /></svg>