<?xml version="1.0" encoding="UTF-8" standalone="no"?>
<!-- Generator: Adobe Illustrator 19.0.0, SVG Export Plug-In . SVG Version: 6.00 Build 0)  -->

<svg
   xmlns:dc="http://purl.org/dc/elements/1.1/"
   xmlns:cc="http://creativecommons.org/ns#"
   xmlns:rdf="http://www.w3.org/1999/02/22-rdf-syntax-ns#"
   xmlns:svg="http://www.w3.org/2000/svg"
   xmlns="http://www.w3.org/2000/svg"
   xmlns:sodipodi="http://sodipodi.sourceforge.net/DTD/sodipodi-0.dtd"
   xmlns:inkscape="http://www.inkscape.org/namespaces/inkscape"
   version="1.1"
   id="Capa_1"
   x="0px"
   y="0px"
   viewBox="0 0 57.051 57.051"
   style="enable-background:new 0 0 57.051 57.051;"
   xml:space="preserve"
   sodipodi:docname="can.svg"
   inkscape:version="0.92.1 r15371"><metadata
     id="metadata49"><rdf:RDF><cc:Work
         rdf:about=""><dc:format>image/svg+xml</dc:format><dc:type
           rdf:resource="http://purl.org/dc/dcmitype/StillImage" /></cc:Work></rdf:RDF></metadata><defs
     id="defs47" /><sodipodi:namedview
     pagecolor="#ffffff"
     bordercolor="#666666"
     borderopacity="1"
     objecttolerance="10"
     gridtolerance="10"
     guidetolerance="10"
     inkscape:pageopacity="0"
     inkscape:pageshadow="2"
     inkscape:window-width="821"
     inkscape:window-height="480"
     id="namedview45"
     showgrid="false"
     inkscape:zoom="4.1366498"
     inkscape:cx="28.525499"
     inkscape:cy="28.525499"
     inkscape:window-x="0"
     inkscape:window-y="0"
     inkscape:window-maximized="0"
     inkscape:current-layer="Capa_1" /><g
     id="g12"
     style="fill:#ffffff"><path
       d="M 42.775,16.569 C 41.248,14.123 38.87,11.238 36.079,8.447 31.873,4.242 26.367,0 23.547,0 c -0.778,0 -1.25,0.309 -1.508,0.566 -1.091,1.091 -0.603,3.18 1.492,6.387 l 0.247,0.379 2.934,0.419 -1.331,1.775 0.492,0.605 c 1.076,1.326 2.283,2.654 3.562,3.962 -0.47,-0.019 -0.941,-0.042 -1.409,-0.042 -8.837,0 -15.5,3.01 -15.5,7 v 5.755 l 4.4,1.931 c 2.663,1.43 6.785,2.262 11.1,2.262 3.816,0 7.498,-0.648 10.102,-1.779 l 5.398,-2.197 v -4.229 c 0.18,-0.097 0.33,-0.205 0.434,-0.309 1.039,-1.038 0.651,-2.973 -1.185,-5.916 z m -14.75,-0.517 c 1.2,0 2.412,0.066 3.608,0.198 0.326,0.301 0.656,0.598 0.988,0.892 0.088,0.078 0.177,0.155 0.266,0.233 0.28,0.245 0.562,0.486 0.844,0.723 0.073,0.062 0.146,0.123 0.219,0.185 0.734,0.61 1.47,1.185 2.193,1.715 0.068,0.05 0.134,0.098 0.202,0.146 0.343,0.248 0.683,0.485 1.018,0.708 0.023,0.016 0.047,0.033 0.071,0.048 0.367,0.244 0.727,0.469 1.08,0.677 0.045,0.027 0.089,0.051 0.134,0.077 0.317,0.184 0.625,0.352 0.926,0.504 0.042,0.021 0.084,0.044 0.126,0.064 0.34,0.168 0.669,0.315 0.983,0.435 -1.438,1.418 -4.666,2.707 -8.981,3.19 -0.185,0.02 -0.368,0.041 -0.557,0.059 -0.186,0.017 -0.375,0.032 -0.565,0.046 -0.257,0.019 -0.518,0.036 -0.782,0.049 -0.153,0.008 -0.306,0.017 -0.462,0.022 -0.43,0.016 -0.866,0.027 -1.313,0.027 -7.956,0 -13.5,-2.635 -13.5,-5 0,-2.365 5.546,-4.998 13.502,-4.998 z"
       id="path2"
       inkscape:connector-curvature="0"
       style="fill:#ffffff" /><path
       d="m 23.029,17.131 0.992,1.736 -6.999,4 -0.992,-1.737 z m 7.05,1.7 -9.001,6 -1.109,-1.664 9.001,-6 z m 4.047,0.969 -8,6 -1.199,-1.599 8,-6 z m 3.023,1.98 -5,4 -1.25,-1.563 5,-4 z"
       id="path4"
       inkscape:connector-curvature="0"
       style="fill:#ffffff" /><path
       d="m 15.512,43.111 c 6.504,3.362 8.797,2.38 9.345,1.998 0.701,-0.488 0.755,-1.35 0.677,-1.987 -0.663,-5.372 -1.519,-5.573 -8.176,-7.134 -1.846,-0.434 -3.206,-0.925 -4.192,-1.306 l -0.64,-0.283 v 7.164 l 1.524,0.715 c 0.465,0.286 0.947,0.568 1.462,0.833 z"
       id="path6"
       inkscape:connector-curvature="0"
       style="fill:#ffffff" /><path
       d="M 28.025,33 C 23.326,33 18.962,32.102 16.05,30.535 l -3.525,-1.547 v 3.224 l 1.405,0.623 c 0.881,0.339 2.157,0.8 3.823,1.19 6.874,1.612 8.931,2.095 9.764,8.852 0.207,1.672 -0.333,3.048 -1.519,3.873 -0.639,0.445 -1.579,0.797 -2.953,0.798 -1.886,0 -4.588,-0.664 -8.452,-2.66 -0.488,-0.253 -0.994,-0.54 -1.544,-0.877 l -0.524,-0.246 v 3.041 l 4.4,1.931 c 2.663,1.43 6.785,2.262 11.1,2.262 3.816,0 7.498,-0.648 10.102,-1.779 l 5.398,-2.197 V 29.182 l -4.623,1.881 C 36.036,32.31 32.166,33 28.025,33 Z"
       id="path8"
       inkscape:connector-curvature="0"
       style="fill:#ffffff" /><path
       d="M 28.025,53 C 23.326,53 18.962,52.102 16.05,50.535 l -3.525,-1.547 v 1.063 c 0,3.99 6.663,7 15.5,7 8.837,0 15.5,-3.01 15.5,-7 v -0.869 l -4.623,1.881 C 36.036,52.31 32.166,53 28.025,53 Z"
       id="path10"
       inkscape:connector-curvature="0"
       style="fill:#ffffff" /></g><g
     id="g14" /><g
     id="g16" /><g
     id="g18" /><g
     id="g20" /><g
     id="g22" /><g
     id="g24" /><g
     id="g26" /><g
     id="g28" /><g
     id="g30" /><g
     id="g32" /><g
     id="g34" /><g
     id="g36" /><g
     id="g38" /><g
     id="g40" /><g
     id="g42" /></svg>