<?xml version="1.0" encoding="UTF-8" standalone="no"?>
<svg
   xmlns:dc="http://purl.org/dc/elements/1.1/"
   xmlns:cc="http://creativecommons.org/ns#"
   xmlns:rdf="http://www.w3.org/1999/02/22-rdf-syntax-ns#"
   xmlns:svg="http://www.w3.org/2000/svg"
   xmlns="http://www.w3.org/2000/svg"
   xmlns:sodipodi="http://sodipodi.sourceforge.net/DTD/sodipodi-0.dtd"
   xmlns:inkscape="http://www.inkscape.org/namespaces/inkscape"
   version="1.1"
   viewBox="0 0 21.9 21.9"
   enable-background="new 0 0 21.9 21.9"
   id="svg4"
   sodipodi:docname="cancel.svg"
   inkscape:version="0.92.1 r15371">
  <metadata
     id="metadata10">
    <rdf:RDF>
      <cc:Work
         rdf:about="">
        <dc:format>image/svg+xml</dc:format>
        <dc:type
           rdf:resource="http://purl.org/dc/dcmitype/StillImage" />
      </cc:Work>
    </rdf:RDF>
  </metadata>
  <defs
     id="defs8" />
  <sodipodi:namedview
     pagecolor="#ffffff"
     bordercolor="#666666"
     borderopacity="1"
     objecttolerance="10"
     gridtolerance="10"
     guidetolerance="10"
     inkscape:pageopacity="0"
     inkscape:pageshadow="2"
     inkscape:window-width="1440"
     inkscape:window-height="836"
     id="namedview6"
     showgrid="false"
     inkscape:zoom="10.776256"
     inkscape:cx="10.95"
     inkscape:cy="10.95"
     inkscape:window-x="0"
     inkscape:window-y="0"
     inkscape:window-maximized="1"
     inkscape:current-layer="svg4" />
  <path
     d="M14.1,11.3c-0.2-0.2-0.2-0.5,0-0.7l7.5-7.5c0.2-0.2,0.3-0.5,0.3-0.7s-0.1-0.5-0.3-0.7l-1.4-1.4C20,0.1,19.7,0,19.5,0  c-0.3,0-0.5,0.1-0.7,0.3l-7.5,7.5c-0.2,0.2-0.5,0.2-0.7,0L3.1,0.3C2.9,0.1,2.6,0,2.4,0S1.9,0.1,1.7,0.3L0.3,1.7C0.1,1.9,0,2.2,0,2.4  s0.1,0.5,0.3,0.7l7.5,7.5c0.2,0.2,0.2,0.5,0,0.7l-7.5,7.5C0.1,19,0,19.3,0,19.5s0.1,0.5,0.3,0.7l1.4,1.4c0.2,0.2,0.5,0.3,0.7,0.3  s0.5-0.1,0.7-0.3l7.5-7.5c0.2-0.2,0.5-0.2,0.7,0l7.5,7.5c0.2,0.2,0.5,0.3,0.7,0.3s0.5-0.1,0.7-0.3l1.4-1.4c0.2-0.2,0.3-0.5,0.3-0.7  s-0.1-0.5-0.3-0.7L14.1,11.3z"
     id="path2"
     style="fill:#ffffff" />
</svg>
