<?xml version="1.0" encoding="UTF-8" standalone="no"?>
<svg
   xmlns:dc="http://purl.org/dc/elements/1.1/"
   xmlns:cc="http://creativecommons.org/ns#"
   xmlns:rdf="http://www.w3.org/1999/02/22-rdf-syntax-ns#"
   xmlns:svg="http://www.w3.org/2000/svg"
   xmlns="http://www.w3.org/2000/svg"
   xmlns:sodipodi="http://sodipodi.sourceforge.net/DTD/sodipodi-0.dtd"
   xmlns:inkscape="http://www.inkscape.org/namespaces/inkscape"
   height="32"
   viewBox="0 -66 23.999999 23.999999"
   width="32"
   version="1.1"
   id="svg6"
   sodipodi:docname="co2.svg"
   inkscape:version="0.92.1 r15371">
  <metadata
     id="metadata12">
    <rdf:RDF>
      <cc:Work
         rdf:about="">
        <dc:format>image/svg+xml</dc:format>
        <dc:type
           rdf:resource="http://purl.org/dc/dcmitype/StillImage" />
        <dc:title></dc:title>
      </cc:Work>
    </rdf:RDF>
  </metadata>
  <defs
     id="defs10" />
  <sodipodi:namedview
     pagecolor="#313131"
     bordercolor="#666666"
     borderopacity="1"
     objecttolerance="10"
     gridtolerance="10"
     guidetolerance="10"
     inkscape:pageopacity="1"
     inkscape:pageshadow="2"
     inkscape:window-width="1440"
     inkscape:window-height="836"
     id="namedview8"
     showgrid="false"
     inkscape:zoom="11.0625"
     inkscape:cx="28.044888"
     inkscape:cy="15.770218"
     inkscape:window-x="0"
     inkscape:window-y="0"
     inkscape:window-maximized="1"
     inkscape:current-layer="svg6"
     units="px" />
  <g
     id="g4485"
     transform="matrix(0.88250009,0,0,0.88250009,-0.36171661,-8.3517136)">
    <path
       inkscape:connector-curvature="0"
       style="fill:#ffffff;stroke-width:0.05296614"
       id="path2"
       d="m 15.138104,-51.017324 c -0.596904,0 -0.895459,0.33207 -0.895459,0.99601 v 2.64003 c 0,0.66415 0.298555,0.99622 0.895459,0.99622 0.603731,0 0.90539,-0.33207 0.90539,-0.99622 v -2.64003 c 0,-0.66394 -0.301659,-0.99601 -0.90539,-0.99601 z m 0,0" />
    <path
       inkscape:connector-curvature="0"
       style="fill:#ffffff;stroke-width:0.05296614"
       id="path4"
       d="m 26.206992,-51.156564 c -0.6418,-0.79098 -1.424913,-1.37774 -2.331751,-1.74809 0.147726,-0.42559 0.222416,-0.87456 0.222416,-1.33885 0,-1.14559 -0.414625,-2.13747 -1.232704,-2.94768 -0.815596,-0.80774 -1.813469,-1.21719 -2.965483,-1.21719 -0.687733,0 -1.324981,0.14897 -1.898299,0.4438 -0.57373,-1.00036 -1.364912,-1.84678 -2.355958,-2.51879 -1.268084,-0.85967 -2.699825,-1.2956 -4.255499,-1.2956 -2.0871972,0 -3.8946668,0.74194 -5.372339,2.20492 -1.4797416,1.46484 -2.2299574,3.25824 -2.2299574,5.33075 0,0.0292 2.066e-4,0.06 0.00103,0.0929 -0.9405628,0.52738 -1.7242962,1.26374 -2.3311309,2.19085 -0.71255557,1.08808 -1.07380117,2.30424 -1.07380117,3.61473 0,1.83623 0.66745607,3.42811 1.98395437,4.73158 1.3142223,1.30139 2.9181033,1.9614 4.7673662,1.9614 H 21.601835 c 1.618984,0 3.021553,-0.57559 4.168807,-1.71126 1.149118,-1.13753 1.731538,-2.53017 1.731538,-4.13922 -2.12e-4,-1.36678 -0.435936,-2.59638 -1.295188,-3.65425 z m -17.1051671,4.77129 c 0.1876574,0 0.3436591,-0.0298 0.4677985,-0.0896 0.1241394,-0.0598 0.212899,-0.15104 0.266693,-0.27394 0.053587,-0.12289 0.08876,-0.22427 0.1057252,-0.30393 0.016552,-0.0797 0.031656,-0.18911 0.045104,-0.32876 0.02669,-0.31201 0.2851064,-0.46801 0.7746304,-0.46801 0.288417,0 0.49304,0.0515 0.613662,0.15435 0.120829,0.10303 0.181244,0.29731 0.181244,0.58262 0,0.64429 -0.236486,1.15243 -0.70925,1.52423 -0.472971,0.372 -1.0783581,0.5578 -1.8159529,0.5578 -0.7177325,0 -1.2995327,-0.18911 -1.7456067,-0.56773 -0.4460745,-0.37863 -0.6689046,-0.97284 -0.6689046,-1.78326 v -2.63983 c 0,-0.81021 0.2228301,-1.40464 0.6689046,-1.78326 0.446074,-0.37842 1.0278742,-0.56773 1.7456067,-0.56773 0.7375948,0 1.3429819,0.17607 1.8159529,0.52801 0.472764,0.35214 0.70925,0.83669 0.70925,1.45449 0,0.28553 -0.06042,0.4798 -0.181244,0.58263 -0.120622,0.10304 -0.321934,0.15435 -0.603524,0.15435 -0.502972,0 -0.7647,-0.1558 -0.7847684,-0.46801 -0.020069,-0.59773 -0.3186247,-0.8967 -0.8954588,-0.8967 -0.6035248,0 -0.90539,0.33228 -0.90539,0.99622 v 2.63983 c 0,0.66435 0.3051755,0.99621 0.9155277,0.99621 z m 8.5112041,-0.99621 c 0,0.81042 -0.224692,1.40484 -0.674077,1.78326 -0.449384,0.37862 -1.049805,0.56794 -1.800848,0.56794 -0.744423,0 -1.341534,-0.18932 -1.790711,-0.56794 -0.449385,-0.37842 -0.674077,-0.97284 -0.674077,-1.78326 v -2.63983 c 0,-0.81021 0.224692,-1.40464 0.674077,-1.78305 0.449177,-0.37863 1.046288,-0.56794 1.790711,-0.56794 0.751043,0 1.351464,0.18931 1.800848,0.56794 0.449385,0.37841 0.674077,0.97284 0.674077,1.78305 z m 3.748803,1.46546 c 0.07821,0 0.145864,0.0406 0.203588,0.12145 0.05773,0.0811 0.08648,0.17607 0.08648,0.28552 0,0.10924 -0.02855,0.20628 -0.08586,0.29132 -0.05731,0.085 -0.12476,0.12765 -0.202347,0.12765 h -2.182992 c -0.09414,0 -0.187036,-0.0285 -0.279106,-0.0857 -0.09186,-0.0569 -0.138002,-0.12621 -0.138002,-0.20773 v -0.59256 c 0,-0.17524 0.06579,-0.35028 0.196968,-0.52552 0.131174,-0.17504 0.289866,-0.33187 0.475868,-0.47028 l 0.562972,-0.41753 c 0.194692,-0.13903 0.359383,-0.28428 0.493868,-0.43573 0.134691,-0.15145 0.201933,-0.29876 0.201933,-0.44214 0,-0.11462 -0.03931,-0.21579 -0.117932,-0.30393 -0.07883,-0.0879 -0.196968,-0.132 -0.354211,-0.132 -0.13676,0 -0.248486,0.0381 -0.335591,0.11358 -0.0869,0.0757 -0.130553,0.19532 -0.130553,0.35918 0,0.0966 -0.04531,0.18083 -0.136139,0.25221 -0.09083,0.0714 -0.210623,0.10697 -0.360005,0.10697 -0.282417,0 -0.423522,-0.16387 -0.423522,-0.4918 0,-0.35214 0.137174,-0.63456 0.411936,-0.84705 0.274762,-0.21248 0.597318,-0.31883 0.967667,-0.31883 0.381729,0 0.716491,0.11111 1.003874,0.33311 0.287382,0.222 0.431177,0.52118 0.431177,0.89794 0,0.24559 -0.06579,0.4769 -0.197174,0.69373 -0.131381,0.21683 -0.289659,0.39911 -0.47442,0.54622 -0.18476,0.14752 -0.370763,0.28262 -0.557593,0.40531 -0.186829,0.12269 -0.346556,0.24249 -0.479178,0.35918 -0.132622,0.11669 -0.19883,0.22407 -0.19883,0.32214 v 0.0552 z m 0,0" />
  </g>
</svg>
