<?xml version="1.0" encoding="UTF-8" standalone="no"?>
<!-- Generator: Adobe Illustrator 18.0.0, SVG Export Plug-In . SVG Version: 6.00 Build 0)  -->

<svg
   xmlns:dc="http://purl.org/dc/elements/1.1/"
   xmlns:cc="http://creativecommons.org/ns#"
   xmlns:rdf="http://www.w3.org/1999/02/22-rdf-syntax-ns#"
   xmlns:svg="http://www.w3.org/2000/svg"
   xmlns="http://www.w3.org/2000/svg"
   xmlns:sodipodi="http://sodipodi.sourceforge.net/DTD/sodipodi-0.dtd"
   xmlns:inkscape="http://www.inkscape.org/namespaces/inkscape"
   version="1.1"
   id="Capa_1"
   x="0px"
   y="0px"
   viewBox="0 0 56.811 56.811"
   style="enable-background:new 0 0 56.811 56.811;"
   xml:space="preserve"
   sodipodi:docname="groceries.svg"
   inkscape:version="0.92.1 r15371"><metadata
     id="metadata47"><rdf:RDF><cc:Work
         rdf:about=""><dc:format>image/svg+xml</dc:format><dc:type
           rdf:resource="http://purl.org/dc/dcmitype/StillImage" /><dc:title></dc:title></cc:Work></rdf:RDF></metadata><defs
     id="defs45" /><sodipodi:namedview
     pagecolor="#ffffff"
     bordercolor="#666666"
     borderopacity="1"
     objecttolerance="10"
     gridtolerance="10"
     guidetolerance="10"
     inkscape:pageopacity="0"
     inkscape:pageshadow="2"
     inkscape:window-width="1440"
     inkscape:window-height="836"
     id="namedview43"
     showgrid="false"
     inkscape:zoom="4.154125"
     inkscape:cx="-23.831733"
     inkscape:cy="28.4055"
     inkscape:window-x="0"
     inkscape:window-y="0"
     inkscape:window-maximized="1"
     inkscape:current-layer="Capa_1" /><g
     id="g10"
     style="fill:#ffffff"><path
       d="m 36.266,25.296 c 0.106,0.036 0.215,0.053 0.321,0.053 0.417,0 0.806,-0.262 0.947,-0.679 0.313,-0.918 1.314,-1.411 2.232,-1.1 1.962,0.664 4.103,-0.389 4.768,-2.352 0.178,-0.522 -0.102,-1.091 -0.625,-1.269 -0.525,-0.177 -1.091,0.103 -1.269,0.626 -0.312,0.919 -1.313,1.412 -2.232,1.1 -1.959,-0.661 -4.102,0.39 -4.768,2.352 -0.177,0.523 0.103,1.091 0.626,1.269 z"
       id="path2"
       inkscape:connector-curvature="0"
       style="fill:#ffffff" /><path
       d="m 38.632,18.328 c 0.106,0.036 0.215,0.053 0.321,0.053 0.417,0 0.806,-0.262 0.947,-0.679 0.151,-0.445 0.466,-0.805 0.888,-1.013 0.422,-0.208 0.899,-0.238 1.344,-0.087 1.962,0.664 4.102,-0.389 4.768,-2.353 0.178,-0.522 -0.103,-1.091 -0.625,-1.269 -0.523,-0.18 -1.091,0.103 -1.268,0.626 -0.312,0.92 -1.311,1.413 -2.232,1.101 -0.952,-0.323 -1.971,-0.257 -2.871,0.188 -0.9,0.444 -1.574,1.213 -1.897,2.164 -0.178,0.523 0.102,1.091 0.625,1.269 z"
       id="path4"
       inkscape:connector-curvature="0"
       style="fill:#ffffff" /><path
       d="m 40.997,11.36 c 0.107,0.036 0.215,0.053 0.322,0.053 0.417,0 0.806,-0.262 0.947,-0.679 0.23,-0.678 0.971,-1.043 1.648,-0.813 0.835,0.283 1.73,0.225 2.521,-0.164 C 47.225,9.367 47.816,8.693 48.1,7.858 48.278,7.336 47.998,6.767 47.475,6.589 46.95,6.41 46.384,6.692 46.206,7.215 46.094,7.544 45.861,7.81 45.55,7.963 45.239,8.116 44.887,8.139 44.557,8.026 42.835,7.445 40.956,8.369 40.372,10.09 c -0.178,0.524 0.102,1.092 0.625,1.27 z"
       id="path6"
       inkscape:connector-curvature="0"
       style="fill:#ffffff" /><path
       d="M 47.668,25.018 C 49.657,18.558 50.747,12.228 50.903,6.201 50.948,4.473 50.195,2.51 49.031,1.315 47.642,-0.11 45.753,-0.401 43.889,0.559 40.902,2.1 38.766,6.633 37.05,10.277 36.951,10.487 36.854,10.692 36.758,10.895 36.379,9.152 35.227,7.661 33.589,6.883 33.203,5.027 31.731,3.573 29.881,3.196 29.861,3.092 29.836,2.99 29.805,2.887 29.424,1.585 28.274,0.605 26.946,0.447 26.178,0.353 25.45,0.515 24.82,0.883 c -0.54,-0.3 -1.146,-0.46 -1.768,-0.46 -1.739,0 -3.2,1.213 -3.581,2.836 -1.901,0.518 -3.295,2.263 -3.31,4.291 -2.169,0.56 -3.749,2.52 -3.749,4.851 0,0.618 0.116,1.23 0.339,1.807 -0.563,0.695 -0.875,1.565 -0.875,2.478 0,0.548 0.113,1.076 0.326,1.564 -0.999,-1.09 -2.405,-1.981 -3.984,-1.923 -0.552,0.018 -0.986,0.479 -0.969,1.031 0.017,0.541 0.461,0.969 0.999,0.969 0.034,10e-4 0.065,-0.002 0.097,-0.002 0.937,0 1.808,0.62 2.442,1.34 -1.586,0.457 -3.498,1.201 -4.39,2.883 C 5.861,23.559 5.798,24.8 6.151,26.22 5.973,26.511 5.886,26.852 5.905,27.217 l 1.702,24.188 c 0.155,3.033 2.655,5.408 5.691,5.408 h 28.071 c 3.036,0 5.536,-2.375 5.69,-5.39 l 1.746,-25.046 c 0.019,-0.358 -0.112,-0.714 -0.359,-0.974 -0.203,-0.219 -0.485,-0.345 -0.778,-0.385 z M 37.575,13.756 c 0.396,-0.739 0.828,-1.655 1.285,-2.626 1.503,-3.192 3.563,-7.563 5.946,-8.793 1.08,-0.556 2.003,-0.436 2.793,0.374 0.892,0.914 1.331,2.422 1.305,3.438 -0.153,5.912 -1.233,12.134 -3.211,18.494 -0.065,0.209 -0.209,0.631 -0.414,1.21 l -1.704,0.757 c -0.037,0.017 -0.073,0.035 -0.108,0.057 -0.482,0.289 -1.039,0.432 -1.596,0.438 -0.557,-0.006 -1.113,-0.149 -1.595,-0.438 l -0.713,-0.428 c -0.803,-0.481 -1.722,-0.736 -2.658,-0.736 -0.253,0 -0.504,0.022 -0.752,0.059 -0.693,0.089 -1.369,0.315 -1.973,0.678 l -0.712,0.428 c -0.389,0.233 -0.83,0.347 -1.277,0.396 0.022,-0.075 0.047,-0.149 0.069,-0.224 0.277,-0.944 0.576,-1.875 0.888,-2.798 0.114,-0.338 0.233,-0.673 0.353,-1.008 0.261,-0.734 0.534,-1.46 0.816,-2.179 0.121,-0.307 0.237,-0.618 0.362,-0.922 0.872,-2.133 1.835,-4.198 2.896,-6.177 z M 26.021,25.587 c -0.11,0.019 -0.219,0.039 -0.327,0.065 -0.33,0.073 -0.654,0.172 -0.965,0.309 l -0.192,-0.878 c 0.288,0.024 0.575,0.048 0.844,0.048 1.744,0 3.148,-0.519 4.762,-1.667 0.508,-0.362 0.958,-0.636 1.386,-0.863 -0.092,0.261 -0.183,0.521 -0.272,0.783 -0.064,0.188 -0.133,0.373 -0.195,0.562 -0.294,0.89 -0.574,1.787 -0.835,2.692 L 29.562,26.24 c -0.803,-0.481 -1.722,-0.736 -2.658,-0.736 -0.242,0 -0.481,0.023 -0.719,0.057 -0.054,0.006 -0.109,0.018 -0.164,0.026 z M 24.432,12.071 c -0.224,0.046 -0.446,-0.104 -0.492,-0.316 -0.048,-0.219 0.097,-0.444 0.316,-0.492 l 5.61,-1.217 c 0.194,0 0.364,0.137 0.405,0.325 0.032,0.144 -0.022,0.257 -0.058,0.312 -0.035,0.054 -0.114,0.149 -0.258,0.181 z m 0.394,4.056 c 0.117,-0.15 0.231,-0.296 0.341,-0.442 0.079,-0.105 0.148,-0.214 0.206,-0.323 0.246,-0.463 0.304,-0.982 0.19,-1.491 l 4.174,-0.912 c 0.028,0.128 0.058,0.255 0.106,0.373 0.187,0.458 0.521,0.839 0.986,1.105 0.152,0.084 0.311,0.168 0.475,0.255 0.135,0.071 0.27,0.145 0.406,0.219 0.065,0.035 0.131,0.07 0.196,0.106 0.119,0.067 0.234,0.141 0.35,0.214 0.099,0.061 0.197,0.124 0.293,0.191 0.111,0.077 0.217,0.162 0.323,0.248 0.093,0.076 0.182,0.159 0.27,0.244 0.095,0.093 0.189,0.188 0.276,0.292 0.154,0.184 0.302,0.375 0.423,0.604 -0.424,0.936 -0.823,1.891 -1.209,2.854 -0.06,0.149 -0.124,0.294 -0.183,0.443 -1.096,0.278 -2.155,0.798 -3.463,1.729 -1.648,1.171 -2.875,1.482 -4.897,1.189 l -0.607,-2.779 c -0.412,-1.88 0.481,-3.018 1.344,-4.119 z m -5.921,24.865 c 0.552,0 1,0.447 1,1 0,0.553 -0.448,1 -1,1 h -7 c -0.552,0 -1,-0.447 -1,-1 0,-0.553 0.448,-1 1,-1 z m -7,4 h 9 c 0.552,0 1,0.447 1,1 0,0.553 -0.448,1 -1,1 h -9 c -0.552,0 -1,-0.447 -1,-1 0,-0.553 0.448,-1 1,-1 z m 2.687,-29.812 0.655,-0.54 -0.425,-0.733 c -0.266,-0.46 -0.407,-0.98 -0.407,-1.506 0,-1.62 1.269,-2.941 2.889,-3.009 L 18.518,9.341 18.235,8.16 C 18.187,7.962 18.163,7.767 18.163,7.582 c 0,-1.288 1.006,-2.373 2.29,-2.471 l 0.924,-0.07 V 4.046 c 0.029,-0.899 0.77,-1.622 1.677,-1.622 0.522,0 0.896,0.238 1.117,0.438 l 0.701,0.633 0.672,-0.664 c 0.307,-0.304 0.72,-0.452 1.167,-0.396 0.536,0.063 1.02,0.481 1.176,1.018 0.053,0.18 0.068,0.354 0.047,0.531 L 27.817,5.1 h 1.126 c 1.437,0 2.639,1.123 2.738,2.557 l 0.045,0.657 0.621,0.218 c 1.563,0.549 2.591,2.028 2.556,3.683 -0.015,0.707 -0.243,1.388 -0.656,1.985 -0.669,-0.568 -1.39,-0.951 -1.996,-1.27 -0.157,-0.083 -0.309,-0.163 -0.462,-0.248 -0.043,-0.024 -0.095,-0.066 -0.113,-0.171 -0.024,-0.144 0.03,-0.317 0.139,-0.444 0.436,-0.506 0.611,-1.196 0.47,-1.847 L 32.164,9.669 C 31.919,8.548 30.748,7.791 29.627,8.042 L 29.36,8.1 c -0.003,0.001 -0.006,0 -0.008,0.001 l -2.935,0.642 -2.864,0.625 c -1.148,0.251 -1.878,1.389 -1.626,2.538 l 0.06,0.272 c 0,10e-4 0,0.002 0,0.003 0,0.001 0.001,0.002 0.001,0.004 l 0.059,0.271 c 0.145,0.666 0.608,1.227 1.237,1.497 0.156,0.067 0.286,0.194 0.331,0.323 0.026,0.074 0.011,0.112 -0.047,0.208 -0.1,0.133 -0.206,0.269 -0.315,0.407 -0.111,0.141 -0.226,0.29 -0.342,0.443 -0.036,0.047 -0.07,0.096 -0.106,0.144 -0.086,0.116 -0.171,0.236 -0.257,0.36 -0.043,0.063 -0.085,0.128 -0.128,0.193 -0.077,0.119 -0.152,0.241 -0.225,0.368 -0.041,0.071 -0.081,0.141 -0.121,0.214 -0.076,0.141 -0.145,0.29 -0.212,0.441 -0.028,0.063 -0.058,0.123 -0.084,0.188 -0.088,0.219 -0.166,0.447 -0.229,0.687 -0.009,0.036 -0.013,0.075 -0.022,0.112 -0.049,0.206 -0.087,0.418 -0.113,0.641 -0.01,0.088 -0.012,0.18 -0.018,0.271 -0.008,0.118 -0.023,0.231 -0.023,0.354 -0.029,-0.038 -0.057,-0.07 -0.086,-0.107 -0.066,-0.086 -0.132,-0.164 -0.198,-0.246 -0.148,-0.183 -0.297,-0.357 -0.446,-0.52 -0.073,-0.08 -0.147,-0.159 -0.22,-0.234 -0.157,-0.16 -0.316,-0.307 -0.474,-0.445 -0.059,-0.051 -0.117,-0.108 -0.176,-0.156 -0.211,-0.172 -0.424,-0.324 -0.639,-0.457 -0.065,-0.04 -0.131,-0.07 -0.196,-0.107 -0.155,-0.087 -0.311,-0.167 -0.468,-0.234 -0.086,-0.037 -0.173,-0.069 -0.26,-0.099 -0.143,-0.051 -0.286,-0.092 -0.43,-0.126 -0.087,-0.021 -0.174,-0.044 -0.261,-0.059 -0.182,-0.031 -0.365,-0.047 -0.549,-0.052 -0.042,-0.001 -0.084,-0.012 -0.126,-0.012 -1.039,0 -1.985,0.405 -2.824,0.952 -0.092,-0.226 -0.14,-0.469 -0.14,-0.72 -0.001,-0.584 0.259,-1.133 0.712,-1.505 z m -6.425,8.303 c 0.423,-0.797 1.45,-1.405 3.233,-1.915 0.834,-0.238 1.608,-0.683 2.236,-1.283 0.279,-0.267 0.543,-0.498 0.798,-0.705 0.227,-0.185 0.446,-0.347 0.657,-0.486 0.008,-0.005 0.016,-0.01 0.024,-0.015 0.418,-0.272 0.806,-0.453 1.169,-0.546 0.015,-0.004 0.029,-0.007 0.044,-0.01 0.178,-0.042 0.351,-0.066 0.518,-0.066 1.258,0 2.607,1.255 4.01,3.73 0.735,1.297 0.98,3.212 0.661,4.882 -0.075,-0.007 -0.148,-0.017 -0.222,-0.029 -0.359,-0.069 -0.707,-0.184 -1.019,-0.371 l -0.713,-0.428 c -0.803,-0.481 -1.722,-0.736 -2.658,-0.736 -0.253,0 -0.504,0.022 -0.752,0.059 -0.693,0.089 -1.369,0.315 -1.973,0.678 l -0.347,0.208 c -0.593,0.355 -1.276,0.534 -1.961,0.54 -0.685,-0.006 -1.369,-0.184 -1.961,-0.54 L 8.564,25.641 C 8.389,25.537 8.198,25.464 8,25.427 7.841,24.633 7.897,23.993 8.167,23.483 Z m 14.738,27.509 h -11 c -0.552,0 -1,-0.447 -1,-1 0,-0.553 0.448,-1 1,-1 h 11 c 0.552,0 1,0.447 1,1 0,0.553 -0.448,1 -1,1 z m 6,0 h -2 c -0.552,0 -1,-0.447 -1,-1 0,-0.553 0.448,-1 1,-1 h 2 c 0.552,0 1,0.447 1,1 0,0.553 -0.448,1 -1,1 z"
       id="path8"
       inkscape:connector-curvature="0"
       style="fill:#ffffff" /></g><g
     id="g12" /><g
     id="g14" /><g
     id="g16" /><g
     id="g18" /><g
     id="g20" /><g
     id="g22" /><g
     id="g24" /><g
     id="g26" /><g
     id="g28" /><g
     id="g30" /><g
     id="g32" /><g
     id="g34" /><g
     id="g36" /><g
     id="g38" /><g
     id="g40" /></svg>